<?xml version="1.0" encoding="utf-8"?>
<!-- Generator: Adobe Illustrator 19.0.0, SVG Export Plug-In . SVG Version: 6.00 Build 0)  -->
<svg version="1.1" id="Layer_1" xmlns="http://www.w3.org/2000/svg" xmlns:xlink="http://www.w3.org/1999/xlink" x="0px" y="0px"
	 viewBox="-379 181 200 200" style="enable-background:new -379 181 200 200;" xml:space="preserve">
<style type="text/css">
	.st0{fill:#00A8FF;}
</style>
<g id="XMLID_1_">
	<path id="XMLID_12_" class="st0" d="M-257.8,362.9c-5-1.3-7.4-4.7-9.1-9.5c-5.4-15.7-11.1-31.3-16.7-46.9c-0.3-0.8-0.6-1.6-1-2.6
		c-9.3,9-18.5,17.8-28,27.1c0.9-44.2,1.8-88,2.8-131.7c0.1-0.1,0.3-0.1,0.4-0.2c27.4,34.1,54.8,68.1,82.5,102.6
		c-13-1.5-25.5-2.9-38.4-4.4c0.5,1.6,1,3,1.5,4.3c5.4,15.1,10.6,30.4,16.3,45.4c2.7,7.1,0.5,13.9-7.5,15.9
		C-255.9,362.9-256.9,362.9-257.8,362.9z"/>
</g>
</svg>
