<?xml version="1.0" encoding="utf-8"?>
<!-- Generator: Adobe Illustrator 19.0.0, SVG Export Plug-In . SVG Version: 6.00 Build 0)  -->
<svg version="1.1" id="Layer_1" xmlns="http://www.w3.org/2000/svg" xmlns:xlink="http://www.w3.org/1999/xlink" x="0px" y="0px"
	 viewBox="0 0 200 200" style="enable-background:new 0 0 200 200;" xml:space="preserve">
<style type="text/css">
	.st0{fill:#00a8ff;}
</style>
<g>
	<path class="st0" d="M89.1,144.8H64.4v-2.7H4.7v3c0,1.7,1.4,3,3,3h55.9h0.7h24.7h56.6c1.7,0,3-1.4,3-3v-3H89.1V144.8z"/>
	<path class="st0" d="M23.1,139.7h107.7c1.4,0,2.5-1.1,2.5-2.5V73.9c0-1.4-1.1-2.5-2.5-2.5H23.1c-1.4,0-2.5,1.1-2.5,2.5v63.3
		C20.6,138.6,21.7,139.7,23.1,139.7z M76.6,72.6c0.6,0,1,0.5,1,1c0,0.6-0.5,1-1,1s-1-0.5-1-1C75.6,73.1,76,72.6,76.6,72.6z M26.8,76
		h99.9v59.1H26.8V76z"/>
	<path class="st0" d="M186.4,73.2h-40.8c-3,0-5.4,2.4-5.4,5.4v54.1c0,3,2.4,5.4,5.4,5.4h40.8c3,0,5.4-2.4,5.4-5.4V78.5
		C191.8,75.6,189.4,73.2,186.4,73.2z M166.1,136.6c-0.9,0-1.7-0.8-1.7-1.7c0-0.9,0.8-1.7,1.7-1.7c0.9,0,1.7,0.8,1.7,1.7
		C167.8,135.9,167,136.6,166.1,136.6z M185.5,131.6H147v-52h38.5V131.6z"/>
</g>
</svg>
